<mxfile host="app.diagrams.net" modified="2020-06-10T12:58:40.135Z" agent="5.0 (Windows NT 10.0; Win64; x64) AppleWebKit/537.36 (KHTML, like Gecko) Chrome/83.0.4103.97 Safari/537.36" etag="Y7CkOexeYlbsXVzuklOf" version="13.1.3" type="github">
  <diagram id="A4poJhqJYQK2eHVw3orh" name="第 1 页">
    <mxGraphModel dx="811" dy="565" grid="0" gridSize="10" guides="1" tooltips="1" connect="1" arrows="1" fold="1" page="1" pageScale="1" pageWidth="980" pageHeight="1390" math="0" shadow="0">
      <root>
        <mxCell id="0" />
        <mxCell id="1" parent="0" />
        <mxCell id="GQL5-qDVOpE2Wm9C3_93-1" value="&lt;font style=&quot;font-size: 25px&quot;&gt;数据源&lt;/font&gt;" style="ellipse;whiteSpace=wrap;html=1;strokeWidth=3;" vertex="1" parent="1">
          <mxGeometry x="40" y="160" width="120" height="80" as="geometry" />
        </mxCell>
        <mxCell id="GQL5-qDVOpE2Wm9C3_93-2" value="&lt;b&gt;&lt;font style=&quot;font-size: 25px&quot;&gt;filter&lt;/font&gt;&lt;/b&gt;" style="rounded=0;whiteSpace=wrap;html=1;strokeWidth=3;" vertex="1" parent="1">
          <mxGeometry x="230" y="170" width="120" height="60" as="geometry" />
        </mxCell>
        <mxCell id="GQL5-qDVOpE2Wm9C3_93-3" value="&lt;font style=&quot;font-size: 25px&quot;&gt;map&lt;/font&gt;" style="rounded=0;whiteSpace=wrap;html=1;strokeWidth=3;" vertex="1" parent="1">
          <mxGeometry x="420" y="170" width="120" height="60" as="geometry" />
        </mxCell>
        <mxCell id="GQL5-qDVOpE2Wm9C3_93-4" value="&lt;font style=&quot;font-size: 35px&quot;&gt;...&lt;/font&gt;" style="rounded=0;whiteSpace=wrap;html=1;strokeWidth=3;" vertex="1" parent="1">
          <mxGeometry x="600" y="170" width="120" height="60" as="geometry" />
        </mxCell>
        <mxCell id="GQL5-qDVOpE2Wm9C3_93-5" value="&lt;font style=&quot;font-size: 25px&quot;&gt;终止操作&lt;/font&gt;" style="ellipse;whiteSpace=wrap;html=1;strokeWidth=3;" vertex="1" parent="1">
          <mxGeometry x="800" y="160" width="120" height="80" as="geometry" />
        </mxCell>
        <mxCell id="GQL5-qDVOpE2Wm9C3_93-6" value="" style="shape=flexArrow;endArrow=classic;html=1;" edge="1" parent="1">
          <mxGeometry width="50" height="50" relative="1" as="geometry">
            <mxPoint x="170" y="199.5" as="sourcePoint" />
            <mxPoint x="230" y="199.5" as="targetPoint" />
          </mxGeometry>
        </mxCell>
        <mxCell id="GQL5-qDVOpE2Wm9C3_93-8" value="" style="shape=flexArrow;endArrow=classic;html=1;" edge="1" parent="1">
          <mxGeometry width="50" height="50" relative="1" as="geometry">
            <mxPoint x="540" y="199.5" as="sourcePoint" />
            <mxPoint x="600" y="199.5" as="targetPoint" />
          </mxGeometry>
        </mxCell>
        <mxCell id="GQL5-qDVOpE2Wm9C3_93-9" value="" style="shape=flexArrow;endArrow=classic;html=1;" edge="1" parent="1">
          <mxGeometry width="50" height="50" relative="1" as="geometry">
            <mxPoint x="730" y="199.5" as="sourcePoint" />
            <mxPoint x="790" y="199.5" as="targetPoint" />
          </mxGeometry>
        </mxCell>
        <mxCell id="GQL5-qDVOpE2Wm9C3_93-10" value="" style="shape=flexArrow;endArrow=classic;html=1;" edge="1" parent="1">
          <mxGeometry width="50" height="50" relative="1" as="geometry">
            <mxPoint x="350" y="199.5" as="sourcePoint" />
            <mxPoint x="410" y="199.5" as="targetPoint" />
          </mxGeometry>
        </mxCell>
        <mxCell id="GQL5-qDVOpE2Wm9C3_93-12" value="" style="endArrow=none;html=1;strokeWidth=5;" edge="1" parent="1">
          <mxGeometry width="50" height="50" relative="1" as="geometry">
            <mxPoint x="230" y="280" as="sourcePoint" />
            <mxPoint x="720" y="280" as="targetPoint" />
            <Array as="points">
              <mxPoint x="400" y="280" />
            </Array>
          </mxGeometry>
        </mxCell>
        <mxCell id="GQL5-qDVOpE2Wm9C3_93-13" value="" style="endArrow=none;html=1;strokeWidth=5;" edge="1" parent="1">
          <mxGeometry width="50" height="50" relative="1" as="geometry">
            <mxPoint x="230" y="280" as="sourcePoint" />
            <mxPoint x="230" y="240" as="targetPoint" />
            <Array as="points">
              <mxPoint x="230" y="260" />
            </Array>
          </mxGeometry>
        </mxCell>
        <mxCell id="GQL5-qDVOpE2Wm9C3_93-14" value="" style="endArrow=none;html=1;strokeWidth=5;" edge="1" parent="1">
          <mxGeometry width="50" height="50" relative="1" as="geometry">
            <mxPoint x="720" y="280" as="sourcePoint" />
            <mxPoint x="720" y="240" as="targetPoint" />
            <Array as="points">
              <mxPoint x="720" y="260" />
            </Array>
          </mxGeometry>
        </mxCell>
        <mxCell id="GQL5-qDVOpE2Wm9C3_93-15" value="&lt;font style=&quot;font-size: 18px&quot;&gt;一系列“中间操作”形成的流水线&lt;/font&gt;" style="text;html=1;strokeColor=none;fillColor=none;align=center;verticalAlign=middle;whiteSpace=wrap;rounded=0;" vertex="1" parent="1">
          <mxGeometry x="360" y="240" width="270" height="30" as="geometry" />
        </mxCell>
      </root>
    </mxGraphModel>
  </diagram>
</mxfile>
